inDegrees=no
num_controls=7
num_derivatives=13
num_iterations=165
num_multipliers=7
num_parameters=0
num_slacks=7
num_states=26
objective=4.999459
objective_accelerations=0.402499
objective_balance=0.044767
objective_effort=0.411908
objective_height=4.098962
objective_ligament=0.041324
solver_duration=1841.407019
status=Solve_Succeeded
success=true
DataType=double
version=3
OpenSimVersion=4.4-2022-07-23-0e9fedc
endheader
time	/jointset/ground_pelvis/pelvis_tilt/value	/jointset/ground_pelvis/pelvis_tx/value	/jointset/ground_pelvis/pelvis_ty/value	/jointset/hip_l/hip_flexion_l/value	/jointset/hip_l/hip_adduction_l/value	/jointset/hip_l/hip_rotation_l/value	/jointset/back/lumbar_extension/value	/jointset/patellofemoral_l/patellar_flexion_l/value	/jointset/knee_l/knee_flexion_l/value	/jointset/knee_l/knee_adduction_l/value	/jointset/knee_l/knee_rotation_l/value	/jointset/ankle_l/ankle_angle_l/value	/jointset/subtalar_l/subtalar_angle_l/value	/jointset/ground_pelvis/pelvis_tilt/speed	/jointset/ground_pelvis/pelvis_tx/speed	/jointset/ground_pelvis/pelvis_ty/speed	/jointset/hip_l/hip_flexion_l/speed	/jointset/hip_l/hip_adduction_l/speed	/jointset/hip_l/hip_rotation_l/speed	/jointset/back/lumbar_extension/speed	/jointset/patellofemoral_l/patellar_flexion_l/speed	/jointset/knee_l/knee_flexion_l/speed	/jointset/knee_l/knee_adduction_l/speed	/jointset/knee_l/knee_rotation_l/speed	/jointset/ankle_l/ankle_angle_l/speed	/jointset/subtalar_l/subtalar_angle_l/speed	/forceset/tau_hip_flexion_l	/forceset/tau_hip_adduction_l	/forceset/tau_hip_rotation_l	/forceset/tau_knee_flexion_l	/forceset/tau_ankle_angle_l	/forceset/tau_subtalar_angle_l	/forceset/tau_lumbar_extension	lambda_cid13_p0	lambda_cid13_p1	lambda_cid13_p2	lambda_cid13_p3	lambda_cid13_p4	lambda_cid13_p5	lambda_cid14_p0	/jointset/ground_pelvis/pelvis_tilt/accel	/jointset/ground_pelvis/pelvis_tx/accel	/jointset/ground_pelvis/pelvis_ty/accel	/jointset/hip_l/hip_flexion_l/accel	/jointset/hip_l/hip_adduction_l/accel	/jointset/hip_l/hip_rotation_l/accel	/jointset/back/lumbar_extension/accel	/jointset/patellofemoral_l/patellar_flexion_l/accel	/jointset/knee_l/knee_flexion_l/accel	/jointset/knee_l/knee_adduction_l/accel	/jointset/knee_l/knee_rotation_l/accel	/jointset/ankle_l/ankle_angle_l/accel	/jointset/subtalar_l/subtalar_angle_l/accel	gamma_cid13_p0	gamma_cid13_p1	gamma_cid13_p2	gamma_cid13_p3	gamma_cid13_p4	gamma_cid13_p5	gamma_cid14_p0
0	-0.160149188240219	0.05856786634954762	0.8979981345302123	0.3774920279260975	-0.2591459971337164	-0.2728178153058289	-0.0126506700172305	0.03223623128433884	0.03223623128433527	-0.1745329251994329	0.1743817319463468	-0.04231376238535053	-0.009272193926990049	0	0	0	0	0	0	0	0	0	0	0	0	0	0.1292092896868252	-0.06864792125870464	-0.0464248382788643	-0.2692305492643987	0.250597098816973	-0.03327786446423706	-0.07903713688584511	38.01231716991865	1.257223212460157	6.867023545701514	11.59071126329939	-596.2674547654331	-73.05904827417983	-39.06905419847968	-3.984064078281192	-2.22613735118384	-0.9581771992602705	10.73778553459107	-0.8993594268424649	2.132665269521638	-5.381058467832581	6.382399467945844	6.382399467947836	0.03722101625902257	0.04102920134456205	-0.3738401284891577	-1.009286982777864	-6.421150578574788e-09	6.772304497338798e-08	2.348233742292787e-08	-5.690868461599005e-09	6.435187774346162e-08	3.894928780109282e-08	-2.964990738019368e-09
0.01	-0.1603423558662176	0.05845804041924752	0.8979512567649158	0.3780162112525655	-0.2591909365641142	-0.2727115917809471	-0.0129201130235403	0.03254784389344936	0.03254784389342621	-0.1745328948771255	0.1743817603834525	-0.04233357943864464	-0.009322873083576547	-0.03844812858169577	-0.02185001794903971	-0.009338749794339995	0.1043408184749498	-0.008945665204164812	0.02114967184747917	-0.05351393940404886	0.06205390069513534	0.06205390069514225	5.739878168951425e-06	8.844654768037185e-06	-0.003918679219515958	-0.01008216533835429	0.1244254501911327	-0.07514727163609899	-0.04559793387496788	-0.2645747819139016	0.2441018647268966	-0.02382489817873866	-0.07494572534041696	36.28553954889563	-2.350455337920343	7.218993390405087	11.61671547965402	-597.1862906806685	-79.92126991985941	-39.07801132647092	-3.747381989362701	-2.147159938605169	-0.9161905094066641	10.20784995488035	-0.8858458560578355	2.091861326806975	-5.280362397842041	6.076592794769556	6.076592794769351	-0.01797673949317515	-0.01871525710341513	-0.3941719436557212	-0.9996447593486254	-1.960673838505713e-08	7.333606083095504e-08	4.317550482075463e-08	4.498016658330081e-09	-1.741384780174656e-08	4.269400075076031e-08	-6.807556885278756e-09
0.02	-0.1609144437262841	0.05813316912508849	0.8978120981736994	0.379568926753934	-0.2593240678043247	-0.2723967229006895	-0.01371345556812795	0.0334719369943743	0.03347193699437354	-0.1745328462693028	0.1743819717962109	-0.04239124130912842	-0.009472766583543466	-0.07578404681334359	-0.04300907277178827	-0.01845616518398702	0.2057064349872402	-0.01763836196249923	0.04172907107279233	-0.1047799076541266	0.1224960983691599	0.122496098369163	2.391232777275401e-06	3.65951236799734e-05	-0.007568963437948747	-0.01984286867608546	0.1196416106951359	-0.08164662201351258	-0.04477102947092453	-0.2599190145635353	0.2376066306367916	-0.01437193189326733	-0.07085431379522868	34.61366646284753	-5.966766866864349	7.571221230602949	11.60939273575798	-597.2218352243259	-86.70986935116836	-39.10446938957715	-3.761622008271523	-2.087944725925724	-0.9139103183216757	10.14274514205927	-0.848765737676332	2.018610745088428	-4.931464237038352	6.060058863723695	6.060058863723551	0.03540331154700783	0.04481036417334502	-0.320161128272642	-0.9449945826532161	-3.279232619153947e-08	7.89490766885221e-08	6.286867221858139e-08	1.468690177825917e-08	-9.917957334695473e-08	4.64387137004278e-08	-1.065012303253814e-08
0.03	-0.1618544645285493	0.05760003430028403	0.8975826961692128	0.3821208833305001	-0.2595427382030495	-0.2718789295605489	-0.01500824652444268	0.03499254891322204	0.03499254891322463	-0.1745327415645452	0.1743825901397659	-0.04248417696791174	-0.009718565649892047	-0.1120203382749771	-0.06351361252323873	-0.02740077529943144	0.3041932448212271	-0.02604860523139586	0.06173355310633113	-0.1538342453753141	0.1813602063651935	0.1813602063651818	1.407935634926547e-05	8.965082628524713e-05	-0.01098788367625396	-0.02926186152791131	0.1139430151763267	-0.07680230153709566	-0.04393036638386021	-0.2545261180718176	0.2326153987987885	-0.01595123263966892	-0.06618458672404294	32.98172799818248	-5.09135178146569	7.541557161277038	11.92246232682248	-597.168977836394	-84.08044332107545	-39.14766912003122	-3.524670539869835	-2.016063671563612	-0.8812374623917156	9.62789747757737	-0.8300947491223967	1.976951685355744	-4.840812804627983	5.75967705762057	5.759677057618393	-0.01660338359432453	-0.01406802639374782	-0.3482160373056078	-0.9321084765968318	-4.18068340070886e-08	8.54660432307411e-08	7.522246796897259e-08	2.201879125540435e-08	-1.591681480066363e-07	5.236310287388346e-08	-1.294199711802777e-08
0.04	-0.1631508558103839	0.05686498306360289	0.8972645478427257	0.3856429577201175	-0.2598440992599881	-0.2711639744495031	-0.01678325971095879	0.0370938199700621	0.03709381997006071	-0.174532650967719	0.1743838148003897	-0.04261039354221748	-0.01005690601278882	-0.1470581427270428	-0.08339235514712152	-0.03620542958409589	0.3997299975955714	-0.03417649360533894	0.0811614252546377	-0.2008243536952521	0.2386279259643254	0.2386279259642992	-4.303743441879052e-07	0.0001578585409774284	-0.0142251465424063	-0.038351127985721	0.1082444196576489	-0.07195798106068031	-0.04308970329685254	-0.2491332215800111	0.2276241669608126	-0.01753053338606512	-0.06151485965277428	31.39991502368947	-4.223325339843186	7.511486808900761	12.20090935611463	-596.3193171080744	-81.38138490886736	-39.20681670271515	-3.52192460635795	-1.96278530041228	-0.8859191521656943	9.55273373013079	-0.7922947586857186	1.90328876804197	-4.518618356788469	5.740781184343366	5.740781184343272	0.03016374069372787	0.04784076659074425	-0.2838296538421962	-0.8790493038501132	-5.073534017334014e-08	9.200164793140653e-08	8.74249364689012e-08	2.929177360589419e-08	-2.187077092459978e-07	5.833243382514919e-08	-1.520189817131597e-08
0.05	-0.1647920777821304	0.0559343358863672	0.8968588978001948	0.3901062720767574	-0.2602251841212493	-0.2702576352663368	-0.01901751444722716	0.03976005926773894	0.03976005926774042	-0.174532607843693	0.1743858775104609	-0.0427678921334204	-0.01048430721574366	-0.1809954644880279	-0.1026238435848639	-0.04491125249349457	0.4924419719309207	-0.04198696311957011	0.1000120661895926	-0.2456837794029351	0.2943497739178482	0.2943497739178262	5.798972042329333e-06	0.0002530984182269847	-0.01723642303823004	-0.04706597258853427	0.1023567730880367	-0.07051551379830424	-0.04226954072941642	-0.2444845028359647	0.2231168358231793	-0.01588260477632109	-0.05668840060610538	30.0994470805489	-4.711730159061711	7.589822001368168	12.1326505784308	-595.5973989746824	-81.46197780865621	-39.28088924983731	-3.301021898661199	-1.886339191467062	-0.8609591186675528	9.056785717965978	-0.7674028625871608	1.861787200032841	-4.41818255432988	5.447365711506463	5.447365711507164	-0.01461718017554731	-0.009884071831626578	-0.3040564322086011	-0.8582549588960103	-5.845976966232051e-08	9.843250345927248e-08	9.698817961332815e-08	3.637837037730732e-08	-2.652212278914623e-07	6.198972784264408e-08	-1.676201947869656e-08
